<?xml version="1.0" encoding="utf-8"?>
<!-- Generator: Adobe Illustrator 21.0.2, SVG Export Plug-In . SVG Version: 6.00 Build 0)  -->
<svg version="1.1" id="Layer_2_1_" xmlns="http://www.w3.org/2000/svg" xmlns:xlink="http://www.w3.org/1999/xlink" x="0px" y="0px"
	 viewBox="0 0 64 64" style="enable-background:new 0 0 64 64;" xml:space="preserve">
<g>
	<path d="M61.6,34.5v-8.3c1.6-0.8,2.4-2.1,2.4-4c0-1.6-1.1-3.2-2.7-4L33.9,5.7c-1.1-0.5-2.4-0.5-3.5,0L2.7,17.9
		C1.1,18.7,0,20,0,21.9c0,1.6,1.1,3.2,2.7,4l8.3,3.7v14.1c0,8.3,6.7,14.9,14.9,14.9H36c8.3,0,14.9-6.7,14.9-14.9V31l5.3-2.4v6.1
		l-1.9,1.9c-0.3,0.3-0.3,0.5,0,0.8l4.3,4.3c0.3,0.3,0.5,0.3,0.8,0l4.3-4.3c0.3-0.3,0.3-0.5,0-0.8L61.6,34.5z M32.3,10.7l25.1,11.2
		L32.3,33.4L6.9,21.9L32.3,10.7z M46,43.8c0,5.3-4.7,9.6-10,9.6H25.9c-5.3,0-9.6-4.3-9.6-9.6V32.1l14.4,6.4c0.5,0.3,1.1,0.3,1.9,0.3
		c0.5,0,1.1,0,1.9-0.3L46,33.4V43.8C46,43.8,46,43.8,46,43.8z"/>
</g>
</svg>
