<?xml version="1.0" encoding="utf-8"?>
<!-- Generator: Adobe Illustrator 23.0.0, SVG Export Plug-In . SVG Version: 6.00 Build 0)  -->
<svg version="1.1" id="Layer_2_1_" xmlns="http://www.w3.org/2000/svg" xmlns:xlink="http://www.w3.org/1999/xlink" x="0px" y="0px"
	 viewBox="0 0 64 64" style="enable-background:new 0 0 64 64;" xml:space="preserve">
<g>
	<path d="M52.4,10.7H15.9l0,0l0,0c-1.1,0-2.7-0.3-2.7-2.4c0-1.6,1.3-2.9,2.9-2.9h37.1c1.6,0,2.7-1.1,2.7-2.7S54.8,0,53.2,0H16.1
		c-4.3,0-8,3.5-8.3,7.7V8v49.3c0,3.7,3.2,6.7,7.2,6.7h37.6c1.9,0,3.5-1.6,3.5-3.5V14.1C55.9,12.3,54.3,10.7,52.4,10.7z M50.5,58.7
		H15.1c-1.1,0-1.9-0.5-1.9-1.3V15.5c0.8,0.3,1.6,0.5,2.7,0.5l0,0l0,0h34.7V58.7z"/>
	<path d="M23.9,56h16c1.6,0,2.7-1.1,2.7-2.7c0-1.6-1.1-2.7-2.7-2.7h-16c-1.6,0-2.7,1.1-2.7,2.7C21.2,54.9,22.3,56,23.9,56z"/>
	<path d="M23.9,32h16c1.6,0,2.7-1.1,2.7-2.7v-8c0-1.6-1.1-2.7-2.7-2.7h-16c-1.6,0-2.7,1.1-2.7,2.7v8C21.2,30.9,22.3,32,23.9,32z
		 M26.5,24h10.7v2.7H26.5V24z"/>
</g>
</svg>
