<?xml version="1.0" encoding="utf-8"?>
<!-- Generator: Adobe Illustrator 22.0.1, SVG Export Plug-In . SVG Version: 6.00 Build 0)  -->
<svg version="1.1" id="Layer_1" xmlns="http://www.w3.org/2000/svg" xmlns:xlink="http://www.w3.org/1999/xlink" x="0px" y="0px"
	 viewBox="0 0 64 64" style="enable-background:new 0 0 64 64;" xml:space="preserve">
<g>
	<path d="M19.1,14.1c-1.1-1.1-2.7-1.1-3.7,0L1.2,28.8c-1.6,1.9-1.6,4.5,0,6.1l14.1,14.7c0.5,0.5,1.3,0.8,1.9,0.8s1.3-0.3,1.9-0.8
		c1.1-1.1,1.1-2.7,0-3.7L5.5,32l13.6-14.1C20.2,16.8,20.2,15.2,19.1,14.1z"/>
	<path d="M62.6,28.8L48.4,14.1c-1.1-1.1-2.7-1.1-3.7,0s-1.1,2.7,0,3.7L58.3,32L44.7,46.1c-1.1,1.1-1.1,2.7,0,3.7
		c0.5,0.5,1.1,0.8,1.9,0.8c0.8,0,1.3-0.3,1.9-0.8l14.1-14.7C64.4,33.3,64.4,30.7,62.6,28.8z"/>
	<path d="M38.3,14.4c-1.3-0.5-2.9,0.3-3.5,1.6L23.9,46.4c-0.5,1.3,0.3,2.9,1.6,3.5c0.3,0,0.5,0.3,0.8,0.3c1.1,0,2.1-0.8,2.4-1.9
		l11.2-30.7C40.4,16.3,39.6,14.7,38.3,14.4z"/>
</g>
</svg>
