<?xml version="1.0" encoding="utf-8"?>
<!-- Generator: Adobe Illustrator 23.0.0, SVG Export Plug-In . SVG Version: 6.00 Build 0)  -->
<svg version="1.1" id="Layer_1" xmlns="http://www.w3.org/2000/svg" xmlns:xlink="http://www.w3.org/1999/xlink" x="0px" y="0px"
	 viewBox="0 0 64 64" style="enable-background:new 0 0 64 64;" xml:space="preserve">
<path d="M58.7,10.7H5.3C2.4,10.7,0,13.1,0,16v32c0,2.9,2.4,5.3,5.3,5.3h53.3c2.9,0,5.3-2.4,5.3-5.3V16C64,13.1,61.6,10.7,58.7,10.7z
	 M52.3,16L33.1,27.7c-0.5,0.3-1.3,0.3-1.9,0L11.7,16H52.3z M5.3,48V18.4l22.9,13.9c1.1,0.8,2.4,1.1,3.7,1.1c1.3,0,2.7-0.3,3.7-1.1
	l22.9-13.9V48H5.3z"/>
</svg>
