<?xml version="1.0" encoding="utf-8"?>
<!-- Generator: Adobe Illustrator 22.0.1, SVG Export Plug-In . SVG Version: 6.00 Build 0)  -->
<svg version="1.1" id="Layer_2_1_" xmlns="http://www.w3.org/2000/svg" xmlns:xlink="http://www.w3.org/1999/xlink" x="0px" y="0px"
	 viewBox="0 0 64 64" style="enable-background:new 0 0 64 64;" xml:space="preserve">
<path d="M49.5,0H14.3c-2.1,0-3.7,1.6-3.7,3.7v42.9c0,1.6,0.5,2.9,1.9,4l13.3,12l0,0c1.1,0.8,2.1,1.3,3.5,1.3h20.5
	c1.9,0,3.7-1.6,3.7-3.7V3.7C53.2,1.6,51.6,0,49.5,0z M17.2,47.7h9.3V56L17.2,47.7z M47.9,58.4h-16V45.9c0-1.9-1.6-3.5-3.2-3.5H15.9
	V5.3h32V58.4z"/>
</svg>
