<?xml version="1.0" encoding="utf-8"?>
<!-- Generator: Adobe Illustrator 22.0.1, SVG Export Plug-In . SVG Version: 6.00 Build 0)  -->
<svg version="1.1" id="Layer_2_1_" xmlns="http://www.w3.org/2000/svg" xmlns:xlink="http://www.w3.org/1999/xlink" x="0px" y="0px"
	 viewBox="0 0 64 64" style="enable-background:new 0 0 64 64;" xml:space="preserve">
<g>
	<path d="M49.4,0H14.3c-2.1,0-3.7,1.6-3.7,3.7v43c0,1.6,0.5,2.9,1.9,4l13.3,12l0,0c1.1,0.8,2.1,1.3,3.5,1.3h20.4
		c1.9,0,3.7-1.6,3.7-3.7V3.7C53.1,1.6,51.5,0,49.4,0z M26.6,56l-9.3-8.2h9.3V56z M47.8,58.4H31.9V45.9c0-1.9-1.6-3.5-3.2-3.5H15.9
		V5.3h31.9V58.4z"/>
	<path d="M23.9,23.9h15.9c1.6,0,2.7-1.1,2.7-2.7c0-1.6-1.1-2.7-2.7-2.7H23.9c-1.6,0-2.7,1.1-2.7,2.7C21.2,22.8,22.3,23.9,23.9,23.9z
		"/>
</g>
</svg>
