<?xml version="1.0" encoding="utf-8"?>
<!-- Generator: Adobe Illustrator 22.0.1, SVG Export Plug-In . SVG Version: 6.00 Build 0)  -->
<svg version="1.1" id="Layer_1" xmlns="http://www.w3.org/2000/svg" xmlns:xlink="http://www.w3.org/1999/xlink" x="0px" y="0px"
	 viewBox="0 0 64 64" style="enable-background:new 0 0 64 64;" xml:space="preserve">
<path d="M62.4,29.1H32.8v8.7H54C52.9,50,42.9,55.3,33.4,55.3c-12.2,0-23-9.5-23-23.3c0-13.3,10.3-23.3,23-23.3
	c9.8,0,15.6,6.3,15.6,6.3L55,8.7c0,0-8-8.7-21.9-8.7C14.8,0,0.8,15.4,0.8,32c0,16.1,13.3,32,32.8,32c17.2,0,29.6-11.6,29.6-29.1
	C63,31.2,62.4,29.1,62.4,29.1L62.4,29.1z"/>
</svg>
