<?xml version="1.0" encoding="utf-8"?>
<!-- Generator: Adobe Illustrator 22.0.1, SVG Export Plug-In . SVG Version: 6.00 Build 0)  -->
<svg version="1.1" id="Layer_2_1_" xmlns="http://www.w3.org/2000/svg" xmlns:xlink="http://www.w3.org/1999/xlink" x="0px" y="0px"
	 viewBox="0 0 64 64" style="enable-background:new 0 0 64 64;" xml:space="preserve">
<path d="M59.3,42.8l-5.9-3.5l5.6-3.2c1.3-0.5,1.9-1.9,2.1-3.2c0-1.3-0.8-2.7-1.9-3.2l-6.7-4l6.7-3.7c1.3-0.5,1.9-1.9,2.1-3.2
	c0-1.3-0.8-2.7-1.9-3.2L34.5,0.7c-1.1-0.8-2.7-0.8-3.7,0L4.4,15.4c-1.1,0.8-1.9,1.9-1.9,3.2c0,1.3,0.8,2.7,1.9,3.2l6.9,3.7l-6.9,4
	c-1.1,0.5-1.9,1.9-1.9,3.2c0,1.3,0.8,2.7,1.9,3.2l6.1,3.5l-6.1,3.5c-1.1,0.5-1.9,1.9-1.9,3.2c0,1.3,0.8,2.7,1.9,3.2l26.1,14.1
	c0.5,0.3,1.3,0.5,1.9,0.5c0.5,0,1.3-0.3,1.9-0.5l24.8-14.1c1.3-0.5,1.9-1.9,2.1-3.2C61.2,44.7,60.4,43.4,59.3,42.8z M9.7,18.6
	L32.7,5.5l21.6,13.1L32.4,30.8L9.7,18.6z M9.7,32.7l7.2-4l13.6,7.5c0.5,0.5,1.3,0.5,1.9,0.5c0,0,0,0,0.3,0c0.8,0,1.3-0.3,1.9-0.8
	l12.8-7.2l6.9,4L32.7,45L9.7,32.7z M32.4,58.3L9.7,46l6.4-3.7l14.4,8c0.5,0.3,1.3,0.5,1.9,0.5c0.5,0,1.3-0.3,1.9-0.5l13.9-8l6.1,3.7
	L32.4,58.3z"/>
</svg>
