<?xml version="1.0" encoding="utf-8"?>
<!-- Generator: Adobe Illustrator 22.0.1, SVG Export Plug-In . SVG Version: 6.00 Build 0)  -->
<svg version="1.1" id="Layer_1" xmlns="http://www.w3.org/2000/svg" xmlns:xlink="http://www.w3.org/1999/xlink" x="0px" y="0px"
	 viewBox="0 0 64 64" style="enable-background:new 0 0 64 64;" xml:space="preserve">
<g>
	<path d="M62.9,29.6L52,19.5c-1.1-1.1-2.7-1.1-3.7,0s-1.1,2.7,0,3.7l9.3,8.8l-9.3,8.8c-1.1,1.1-1.1,2.7,0,3.7
		c0.5,0.5,1.3,0.8,1.9,0.8c0.5,0,1.3-0.3,1.9-0.8l10.9-10.1c0.5-0.5,1.1-1.6,1.1-2.4C64,31.2,63.7,30.1,62.9,29.6z"/>
	<path d="M15.7,19.5c-1.1-1.1-2.7-1.1-3.7,0L1.1,29.6C0.3,30.1,0,31.2,0,32c0,0.8,0.3,1.9,1.1,2.4L12,44.5c0.5,0.5,1.1,0.8,1.9,0.8
		s1.3-0.3,1.9-0.8c1.1-1.1,1.1-2.7,0-3.7L6.4,32l9.3-8.8C16.8,22.1,16.8,20.5,15.7,19.5z"/>
	<circle cx="21.3" cy="32" r="2.7"/>
	<circle cx="32" cy="32" r="2.7"/>
	<circle cx="42.7" cy="32" r="2.7"/>
</g>
</svg>
