<?xml version="1.0" encoding="utf-8"?>
<!-- Generator: Adobe Illustrator 23.0.0, SVG Export Plug-In . SVG Version: 6.00 Build 0)  -->
<svg version="1.1" id="Layer_1" xmlns="http://www.w3.org/2000/svg" xmlns:xlink="http://www.w3.org/1999/xlink" x="0px" y="0px"
	 viewBox="0 0 64 64" style="enable-background:new 0 0 64 64;" xml:space="preserve">
<path d="M61.6,44.1l-9.3-5.9c-2.4-1.3-5.3-0.8-6.9,1.3l-2.1,3.2c-12-7.2-19.5-16.8-22.4-21.1l3.5-2.1c1.1-0.8,1.9-1.9,2.1-3.2
	c0.3-1.3,0-2.7-0.8-3.7l-6.1-8.8c-1.6-2.1-4.5-2.9-6.7-1.6L4,7C3.5,7.3,3.2,7.5,2.7,7.8C-4,15,2.1,31.3,17.6,45.9
	c11.2,10.7,23.2,16.5,31.7,16.5c3.2,0,5.9-0.8,7.7-2.4c0.3-0.3,0.8-0.8,1.1-1.1l0,0l5.1-8C64.8,48.6,64,45.4,61.6,44.1z M53.6,56
	C49,59.8,34.7,55,21.1,42.2C7.7,29.4,2.7,15.8,6.7,11.5l8.3-4.8l5.9,8.5l-3.5,2.1c-1.1,0.8-1.9,1.9-2.1,3.2c-0.3,1.3,0,2.7,0.8,3.7
	c2.9,4.3,11.2,15.2,24.3,23.2c2.4,1.3,5.3,0.8,6.9-1.3l2.4-3.5l9.1,5.6L53.6,56z"/>
</svg>
