<?xml version="1.0" encoding="utf-8"?>
<!-- Generator: Adobe Illustrator 23.0.0, SVG Export Plug-In . SVG Version: 6.00 Build 0)  -->
<svg version="1.1" id="Layer_1" xmlns="http://www.w3.org/2000/svg" xmlns:xlink="http://www.w3.org/1999/xlink" x="0px" y="0px"
	 viewBox="0 0 64 64" style="enable-background:new 0 0 64 64;" xml:space="preserve">
<path d="M55.2,7.5c-0.5,0-1.3,0-1.9,0V3.7c0-2.1-1.6-3.7-3.7-3.7H9.1C6.9,0,5.3,1.6,5.3,3.7v38.1c0,0.8,0.3,1.3,0.8,1.9l19.7,19.5
	c0.5,0.5,1.1,0.8,1.9,0.8h21.9c2.1,0,3.7-1.6,3.7-3.7v-3.7l5.1-10.1c0.3-0.3,0.3-0.8,0.3-1.1V10.7C58.7,9.1,57.3,7.5,55.2,7.5z
	 M53.3,16H48v-3.5c1.9,0,3.5,0,5.3,0V16z M24,53.9l-8.5-8.5H24V53.9z M29.3,58.7V43.2c0-1.9-1.6-3.2-3.2-3.2H10.7V5.3H48v2.1
	c-0.5,0-1.3,0-1.9,0c-1.9,0-3.5,1.3-3.5,3.2v34.4c0,0.5,0,0.8,0.3,1.3L48,56.5v2.1H29.3z M50.7,49.9L48,44.5V21.3h5.3v23.2
	L50.7,49.9z"/>
</svg>
